<?xml version="1.0" encoding="UTF-8"?>
<svg id="Layer_1" data-name="Layer 1" xmlns="http://www.w3.org/2000/svg" viewBox="0 0 205.63 71.44">
  <defs>
    <style>
      .cls-1 {
        fill: #d0362b;
      }

      .cls-2 {
        fill: rgba(208, 54, 43, .5);
        fill-rule: evenodd;
      }

      .cls-3 {
        fill: #010101;
      }
    </style>
  </defs>
  <g id="Layer_1-2" data-name="Layer_1">
    <circle class="cls-1" cx="46.47" cy="23.08" r="14.31"/>
    <circle class="cls-1" cx="38.03" cy="48.06" r="2.07"/>
    <circle class="cls-1" cx="35.37" cy="52.84" r="1.28" transform="translate(-6.08 4.63) rotate(-6.89)"/>
    <circle class="cls-1" cx="40.51" cy="41.41" r="3.35"/>
    <path class="cls-2" d="M34.28,52.62c.22-.67.94-1.04,1.61-.82.67.22,1.04.94.82,1.61-.22.67-.94,1.04-1.61.82-.67-.22-1.04-.94-.82-1.61Z"/>
    <path class="cls-2" d="M36.35,47.65c.35-1.09,1.52-1.68,2.61-1.33,1.09.35,1.68,1.52,1.33,2.61-.35,1.09-1.52,1.68-2.61,1.33-1.09-.35-1.68-1.52-1.33-2.61Z"/>
    <path class="cls-2" d="M45.53,9.66c7.84-.96,14.98,4.61,15.94,12.46s-4.61,14.98-12.46,15.94c-7.84.96-14.98-4.61-15.94-12.45s4.61-14.98,12.45-15.94Z"/>
    <path class="cls-2" d="M37.74,40.74c.57-1.76,2.46-2.73,4.23-2.16,1.76.57,2.73,2.46,2.16,4.23-.57,1.76-2.46,2.73-4.23,2.16s-2.73-2.46-2.16-4.23Z"/>
  </g>
  <g>
    <path class="cls-3" d="M27.97,25.44c0,1.96-.39,3.61-1.17,4.94-.78,1.34-1.81,2.41-3.09,3.22-1.28.81-2.75,1.39-4.38,1.75-1.64.35-3.32.53-5.04.53H0V0h14.29c1.39,0,2.8.14,4.26.43,1.45.29,2.77.78,3.95,1.47,1.18.69,2.15,1.63,2.89,2.81.74,1.18,1.12,2.69,1.12,4.51,0,1.99-.54,3.64-1.62,4.94-1.08,1.3-2.5,2.24-4.26,2.81v.1c1.01.17,1.97.48,2.86.94.89.46,1.67,1.04,2.33,1.75.66.71,1.18,1.54,1.57,2.48.39.95.58,2.01.58,3.19ZM18.14,10.39c0-1.22-.46-2.1-1.39-2.66-.93-.56-2.31-.84-4.13-.84h-4.26v7.4h4.66c1.62,0,2.88-.33,3.78-.99.89-.66,1.34-1.63,1.34-2.91ZM19.31,24.63c0-1.49-.56-2.52-1.67-3.09-1.12-.57-2.6-.86-4.46-.86h-4.81v8.21h4.87c.68,0,1.38-.06,2.1-.18.73-.12,1.39-.33,1.98-.63.59-.3,1.07-.74,1.44-1.29.37-.56.56-1.28.56-2.15Z"/>
    <path class="cls-3" d="M81.85,35.88v-13.78c0-.71-.06-1.39-.18-2.03-.12-.64-.31-1.21-.58-1.7-.27-.49-.65-.88-1.14-1.17-.49-.29-1.11-.43-1.85-.43s-1.39.14-1.95.43c-.56.29-1.02.68-1.39,1.19-.37.51-.65,1.09-.84,1.75-.19.66-.28,1.34-.28,2.05v13.68h-8.36V10.64h8.06v3.5h.1c.3-.54.7-1.07,1.19-1.6.49-.52,1.06-.97,1.72-1.34.66-.37,1.38-.68,2.15-.91.78-.24,1.6-.35,2.48-.35,1.69,0,3.12.3,4.31.91,1.18.61,2.14,1.39,2.86,2.36s1.25,2.07,1.57,3.32c.32,1.25.48,2.5.48,3.75v15.61h-8.36Z"/>
    <path class="cls-3" d="M124.92,25.44c0,1.96-.39,3.61-1.17,4.94-.78,1.34-1.81,2.41-3.09,3.22-1.28.81-2.75,1.39-4.38,1.75-1.64.35-3.32.53-5.04.53h-14.29V0h14.29c1.38,0,2.8.14,4.26.43,1.45.29,2.77.78,3.95,1.47,1.18.69,2.15,1.63,2.89,2.81.74,1.18,1.11,2.69,1.11,4.51,0,1.99-.54,3.64-1.62,4.94-1.08,1.3-2.5,2.24-4.26,2.81v.1c1.01.17,1.97.48,2.86.94.89.46,1.67,1.04,2.33,1.75.66.71,1.18,1.54,1.57,2.48.39.95.58,2.01.58,3.19ZM115.09,10.39c0-1.22-.46-2.1-1.39-2.66-.93-.56-2.31-.84-4.13-.84h-4.26v7.4h4.66c1.62,0,2.88-.33,3.78-.99.89-.66,1.34-1.63,1.34-2.91ZM116.26,24.63c0-1.49-.56-2.52-1.67-3.09-1.11-.57-2.6-.86-4.46-.86h-4.81v8.21h4.86c.68,0,1.38-.06,2.1-.18.73-.12,1.39-.33,1.98-.63s1.07-.74,1.44-1.29c.37-.56.56-1.28.56-2.15Z"/>
    <path class="cls-3" d="M155.23,23.57v1.01c0,.34-.02.66-.05.96h-18.3c.07.71.28,1.35.63,1.93.35.57.81,1.07,1.37,1.49.56.42,1.18.75,1.88.99.69.24,1.41.35,2.15.35,1.32,0,2.43-.24,3.35-.74.91-.49,1.66-1.12,2.23-1.9l5.78,3.65c-1.18,1.72-2.75,3.05-4.69,3.98-1.94.93-4.2,1.39-6.77,1.39-1.89,0-3.68-.3-5.37-.89-1.69-.59-3.17-1.45-4.43-2.58-1.27-1.13-2.26-2.53-2.99-4.18-.73-1.66-1.09-3.55-1.09-5.68s.35-3.93,1.06-5.6c.71-1.67,1.67-3.09,2.89-4.26,1.22-1.17,2.65-2.07,4.31-2.71,1.66-.64,3.45-.96,5.37-.96s3.56.31,5.12.94c1.55.63,2.89,1.53,4,2.71,1.12,1.18,1.98,2.62,2.61,4.31.62,1.69.94,3.62.94,5.78ZM147.58,20.37c0-1.32-.41-2.45-1.24-3.4-.83-.95-2.07-1.42-3.73-1.42-.81,0-1.55.13-2.23.38s-1.27.6-1.77,1.04c-.51.44-.91.95-1.22,1.55-.3.59-.47,1.21-.51,1.85h10.69Z"/>
    <path class="cls-3" d="M176.77,17.48c-.37-.1-.73-.17-1.09-.2-.35-.03-.7-.05-1.04-.05-1.11,0-2.05.2-2.81.61-.76.4-1.37.89-1.82,1.47-.46.57-.79,1.2-.99,1.87-.2.67-.3,1.26-.3,1.77v12.94h-8.31V10.67h8.01v3.65h.1c.64-1.29,1.55-2.35,2.74-3.16,1.18-.82,2.55-1.23,4.11-1.23.34,0,.67.02.99.05.32.03.58.09.79.15l-.35,7.35Z"/>
    <path class="cls-3" d="M197.04,35.88v-13.78c0-.71-.06-1.39-.18-2.03-.12-.64-.31-1.21-.58-1.7-.27-.49-.65-.88-1.14-1.17-.49-.29-1.11-.43-1.85-.43s-1.39.14-1.95.43c-.56.29-1.02.68-1.39,1.19-.37.51-.65,1.09-.84,1.75-.19.66-.28,1.34-.28,2.05v13.68h-8.36V10.64h8.06v3.5h.1c.3-.54.7-1.07,1.19-1.6.49-.52,1.06-.97,1.72-1.34.66-.37,1.38-.68,2.15-.91.78-.24,1.6-.35,2.48-.35,1.69,0,3.12.3,4.31.91,1.18.61,2.14,1.39,2.86,2.36s1.25,2.07,1.57,3.32c.32,1.25.48,2.5.48,3.75v15.61h-8.36Z"/>
  </g>
  <g>
    <path class="cls-3" d="M16.13,49.79v2.37h-6.84v18.91h-2.4v-18.91H.01v-2.37h16.12Z"/>
    <path class="cls-3" d="M28.57,71.07v-8.12c0-1.56-.39-2.79-1.16-3.68-.79-.93-1.78-1.4-2.98-1.4s-2.22.47-3.01,1.4c-.79.93-1.19,2.16-1.19,3.68v8.12h-2.4v-21.29h2.4v7.94c.04-.08.09-.16.15-.23.06-.07.11-.14.15-.2,1.03-1.2,2.39-1.79,4.07-1.79,1.8,0,3.32.69,4.56,2.07.59.67,1.03,1.46,1.34,2.37s.46,1.93.46,3.04v8.09h-2.4Z"/>
    <path class="cls-3" d="M34.22,56.43h2.37v14.64h-2.37v-14.64Z"/>
    <path class="cls-3" d="M51.04,71.07v-8.12c0-1.56-.39-2.79-1.19-3.68-.77-.93-1.76-1.4-2.98-1.4s-2.19.47-2.98,1.4c-.81.93-1.22,2.16-1.22,3.68v8.12h-2.37v-15.2h2.31v1.92c.06-.08.12-.16.18-.24.06-.08.12-.15.18-.21,1.03-1.22,2.39-1.82,4.07-1.82,1.82,0,3.35.69,4.56,2.07.61.67,1.06,1.46,1.35,2.37s.44,1.93.44,3.04v8.09h-2.37Z"/>
    <path class="cls-3" d="M56.48,49.79h2.37v12.89l6.51-6.81h3.25l-5.81,6.14,6.26,9.06h-2.92l-5.02-7.3-2.28,2.37v4.93h-2.37v-21.29Z"/>
    <path class="cls-3" d="M91.54,49.79v2.37h-6.84v18.91h-2.4v-18.91h-6.87v-2.37h16.12Z"/>
    <path class="cls-3" d="M105.4,55.87v15.2h-2.28v-2.31c-.08.1-.15.21-.21.32-.06.11-.14.21-.24.29-1.16,1.38-2.73,2.07-4.71,2.07-2.17,0-3.96-.77-5.38-2.31-1.4-1.56-2.1-3.45-2.1-5.66s.7-4.11,2.1-5.66c1.42-1.54,3.21-2.31,5.38-2.31,1.97,0,3.54.69,4.71,2.07.1.1.18.21.24.32.06.11.13.22.21.32v-2.34h2.28ZM94.31,59.49c-.95,1.08-1.43,2.4-1.43,3.98s.48,2.89,1.43,3.98c.95,1.07,2.19,1.61,3.71,1.61s2.71-.54,3.62-1.61c.45-.53.79-1.13,1.02-1.79.23-.67.35-1.4.35-2.19s-.12-1.55-.35-2.2c-.23-.66-.57-1.25-1.02-1.78-.91-1.07-2.12-1.61-3.62-1.61s-2.76.54-3.71,1.61Z"/>
    <path class="cls-3" d="M119.6,71.07v-8.12c0-1.56-.4-2.79-1.19-3.68-.77-.93-1.76-1.4-2.98-1.4s-2.19.47-2.98,1.4c-.81.93-1.22,2.16-1.22,3.68v8.12h-2.37v-15.2h2.31v1.92c.06-.08.12-.16.18-.24.06-.08.12-.15.18-.21,1.03-1.22,2.39-1.82,4.07-1.82,1.82,0,3.35.69,4.56,2.07.61.67,1.06,1.46,1.35,2.37.29.91.44,1.93.44,3.04v8.09h-2.37Z"/>
    <path class="cls-3" d="M125.05,49.79h2.37v12.89l6.51-6.81h3.25l-5.81,6.14,6.26,9.06h-2.92l-5.02-7.3-2.28,2.37v4.93h-2.37v-21.29Z"/>
    <path class="cls-3" d="M146.48,49.79h2.4v18.91h10.22v2.37h-12.62v-21.29Z"/>
    <path class="cls-3" d="M174.85,55.87v15.2h-2.28v-2.31c-.08.1-.15.21-.21.32-.06.11-.14.21-.24.29-1.16,1.38-2.73,2.07-4.71,2.07-2.17,0-3.96-.77-5.38-2.31-1.4-1.56-2.1-3.45-2.1-5.66s.7-4.11,2.1-5.66c1.42-1.54,3.21-2.31,5.38-2.31,1.97,0,3.54.69,4.71,2.07.1.1.18.21.24.32.06.11.13.22.21.32v-2.34h2.28ZM163.75,59.49c-.95,1.08-1.43,2.4-1.43,3.98s.48,2.89,1.43,3.98c.95,1.07,2.19,1.61,3.71,1.61s2.71-.54,3.62-1.61c.45-.53.79-1.13,1.02-1.79.23-.67.35-1.4.35-2.19s-.12-1.55-.35-2.2c-.23-.66-.57-1.25-1.02-1.78-.91-1.07-2.12-1.61-3.62-1.61s-2.76.54-3.71,1.61Z"/>
    <path class="cls-3" d="M191.15,57.81c1.4,1.54,2.1,3.43,2.1,5.66s-.7,4.1-2.1,5.66c-1.42,1.54-3.21,2.31-5.38,2.31-1.97,0-3.54-.68-4.71-2.04-.08-.1-.16-.21-.23-.32-.07-.11-.15-.22-.23-.32v2.31h-2.28v-21.29h2.37v8.33c.1-.1.19-.21.27-.32.08-.11.16-.22.24-.32,1.13-1.32,2.66-1.98,4.56-1.98,2.17,0,3.96.77,5.38,2.31ZM182.09,59.49c-.45.53-.79,1.12-1.03,1.78-.24.66-.36,1.39-.36,2.2s.12,1.52.36,2.19c.24.67.59,1.27,1.03,1.79.89,1.07,2.09,1.61,3.59,1.61s2.79-.54,3.74-1.61c.95-1.09,1.43-2.42,1.43-3.98s-.48-2.91-1.43-3.98c-.95-1.07-2.2-1.61-3.74-1.61s-2.7.54-3.59,1.61Z"/>
    <path class="cls-3" d="M202.74,59.15c-.14-.41-.44-.74-.88-1-.45-.24-.96-.36-1.55-.36-.77,0-1.36.19-1.76.58-.45.39-.66.87-.64,1.46,0,.65.48,1.19,1.43,1.61.22.08.46.16.71.24s.51.16.78.24c1.58.43,2.75,1,3.5,1.73.87.81,1.31,1.81,1.31,3.01-.02,1.38-.57,2.52-1.64,3.44-1.03.89-2.31,1.34-3.83,1.34-1.22,0-2.27-.28-3.16-.85-.89-.57-1.56-1.35-2.01-2.34l2.22-.79c.55,1.14,1.52,1.7,2.92,1.7.91,0,1.65-.24,2.22-.73.59-.51.87-1.1.85-1.79,0-.77-.52-1.4-1.55-1.89-.24-.14-.51-.26-.79-.36-.28-.1-.6-.19-.94-.27-.63-.16-1.21-.38-1.75-.65-.54-.27-1.02-.58-1.44-.93-.81-.71-1.22-1.62-1.22-2.74,0-1.26.46-2.28,1.37-3.07.91-.81,2.06-1.22,3.44-1.22,1.13,0,2.12.25,2.95.76.79.51,1.37,1.21,1.73,2.1l-2.25.79Z"/>
  </g>
</svg>