<?xml version="1.0" encoding="UTF-8"?>
<svg id="Layer_1" data-name="Layer 1" xmlns="http://www.w3.org/2000/svg" viewBox="0 0 29.42 45.52">
  <defs>
    <style>
      .cls-1 {
        fill: #d0362b;
      }

      .cls-2 {
        fill: rgba(208, 54, 43, .5);
        fill-rule: evenodd;
      }
    </style>
  </defs>
  <g id="Layer_1-2" data-name="Layer_1">
    <circle class="cls-1" cx="14.31" cy="14.31" r="14.31"/>
    <circle class="cls-1" cx="5.86" cy="39.29" r="2.07"/>
    <circle class="cls-1" cx="3.21" cy="44.07" r="1.28" transform="translate(-5.26 .7) rotate(-6.89)"/>
    <circle class="cls-1" cx="8.35" cy="32.64" r="3.35"/>
    <path class="cls-2" d="M2.12,43.85c.22-.67.94-1.04,1.61-.82.67.22,1.04.94.82,1.61-.22.67-.94,1.04-1.61.82-.67-.22-1.04-.94-.82-1.61Z"/>
    <path class="cls-2" d="M4.18,38.88c.35-1.09,1.52-1.68,2.61-1.33,1.09.35,1.68,1.52,1.33,2.61-.35,1.09-1.52,1.68-2.61,1.33-1.09-.35-1.68-1.52-1.33-2.61Z"/>
    <path class="cls-2" d="M13.37.89c7.84-.96,14.98,4.61,15.94,12.46s-4.61,14.98-12.46,15.94c-7.84.96-14.98-4.61-15.94-12.45S5.53,1.86,13.37.89Z"/>
    <path class="cls-2" d="M5.58,31.97c.57-1.76,2.46-2.73,4.23-2.16,1.76.57,2.73,2.46,2.16,4.23-.57,1.76-2.46,2.73-4.23,2.16s-2.73-2.46-2.16-4.23Z"/>
  </g>
</svg>