<?xml version="1.0" encoding="UTF-8"?>
<svg id="Layer_1" data-name="Layer 1" xmlns="http://www.w3.org/2000/svg" viewBox="0 0 102.14 158.04">
  <defs>
    <style>
      .cls-1 {
        fill: #d0362b;
      }

      .cls-2 {
        fill: rgba(208, 54, 43, .5);
        fill-rule: evenodd;
      }
    </style>
  </defs>
  <g id="Layer_1-2" data-name="Layer_1">
    <circle class="cls-1" cx="49.67" cy="49.67" r="49.67"/>
    <circle class="cls-1" cx="20.36" cy="136.39" r="7.18"/>
    <circle class="cls-1" cx="11.14" cy="153" r="4.45" transform="translate(-18.28 2.44) rotate(-6.89)"/>
    <circle class="cls-1" cx="28.97" cy="113.3" r="11.65"/>
    <path class="cls-2" d="M7.36,152.22c.76-2.33,3.27-3.62,5.61-2.86,2.34.76,3.62,3.26,2.86,5.61-.76,2.34-3.26,3.62-5.61,2.86-2.33-.76-3.62-3.26-2.86-5.61Z"/>
    <path class="cls-2" d="M14.52,134.96c1.23-3.77,5.27-5.84,9.05-4.62,3.77,1.23,5.84,5.27,4.62,9.05-1.23,3.77-5.27,5.84-9.05,4.62-3.77-1.23-5.84-5.27-4.62-9.05Z"/>
    <path class="cls-2" d="M46.41,3.1c27.23-3.34,52.01,16.02,55.35,43.24,3.34,27.22-16.02,52-43.24,55.34-27.22,3.34-52-16.02-55.34-43.24C-.16,31.22,19.2,6.45,46.41,3.1Z"/>
    <path class="cls-2" d="M19.37,110.97c1.98-6.12,8.55-9.47,14.67-7.49,6.12,1.98,9.47,8.55,7.49,14.67-1.98,6.12-8.55,9.47-14.67,7.49s-9.47-8.55-7.49-14.67Z"/>
  </g>
</svg>